<?xml version="1.0" standalone="no"?>
<!DOCTYPE svg PUBLIC "-//W3C//DTD SVG 20010904//EN"
 "http://www.w3.org/TR/2001/REC-SVG-20010904/DTD/svg10.dtd">
<svg version="1.0" xmlns="http://www.w3.org/2000/svg"
 width="800.000000pt" height="800.000000pt" viewBox="0 0 800.000000 800.000000"
 preserveAspectRatio="xMidYMid meet">
<metadata>
Created by potrace 1.16, written by Peter Selinger 2001-2019
</metadata>
<g transform="translate(0.000000,800.000000) scale(0.100000,-0.100000)"
fill="#000000" stroke="none">
<path d="M5670 6272 c-85 -16 -162 -31 -170 -34 -56 -20 -119 -33 -390 -77
-168 -27 -375 -54 -460 -61 -85 -6 -236 -24 -335 -40 -99 -16 -232 -34 -295
-40 -130 -14 -275 -35 -530 -78 -96 -16 -222 -35 -280 -41 -58 -7 -121 -16
-140 -21 -45 -11 -290 -46 -450 -65 -69 -8 -161 -19 -205 -25 -44 -6 -131 -17
-193 -25 -62 -8 -160 -15 -219 -15 -67 0 -157 -9 -247 -25 -144 -25 -226 -30
-306 -20 -38 5 -51 1 -85 -23 -33 -23 -42 -36 -49 -76 -18 -89 25 -134 182
-193 37 -14 101 -31 142 -38 41 -7 110 -23 154 -34 43 -12 107 -21 141 -21 69
0 205 23 275 47 25 8 77 21 115 30 39 8 99 21 135 29 62 15 214 43 640 117
200 35 325 52 487 63 l92 7 20 -34 c31 -51 59 -129 96 -274 82 -320 95 -499
98 -1405 3 -758 -15 -1051 -75 -1260 -11 -41 -32 -86 -45 -100 -22 -24 -31
-25 -161 -31 -75 -3 -175 -1 -222 4 -79 8 -108 16 -229 61 -24 9 -62 19 -85
22 -57 8 -97 -24 -99 -79 -1 -32 6 -45 53 -92 30 -30 58 -55 63 -55 4 0 20 -8
35 -18 15 -11 47 -32 72 -48 48 -32 110 -91 270 -263 58 -62 121 -122 140
-134 19 -11 64 -47 99 -79 37 -33 96 -73 139 -94 84 -41 128 -42 217 -8 45 18
54 27 98 99 26 44 56 105 67 135 11 30 27 68 36 83 19 34 30 68 55 172 10 44
26 105 34 135 49 174 73 688 54 1135 -14 313 -14 486 -1 675 13 187 8 870 -7
1048 -17 192 -35 225 -204 381 -35 32 -54 56 -48 60 6 4 140 18 298 32 279 23
313 24 1058 21 787 -3 879 0 990 36 57 18 125 77 160 136 31 54 42 153 22 192
-36 68 -156 148 -265 176 -140 36 -248 50 -412 53 -158 4 -190 1 -330 -23z"/>
</g>
</svg>
